<svg xmlns="http://www.w3.org/2000/svg" width="225.67" height="90" viewBox="0 0 225.67 90"><path d="m72.73 89.91-2-4.36h.86l1 2.27c.38.85.52 1.24.61 1.5.08-.22.25-.62.59-1.44l1-2.33h.82l-2 4.37h-.89Zm10.26-2h-2.74v1.39h3l-.1.6h-3.7v-4.35h3.66v.6h-2.86v1.18H83v.6Zm4.36 2v-4.36h.92c1.11 1.49 2.37 3 2.64 3.48-.05-.54 0-1.26 0-2v-1.48h.71v4.36h-.86c-.63-.81-2.38-3.12-2.69-3.63v3.68Zm12.23-2h-2.75v1.39h3l-.09.6h-3.68v-4.35h3.66v.6h-2.88v1.18h2.74v.6Zm4.07 1.46 3.14-3.26h-3v-.58h4v.56l-3.1 3.22H108l-.1.58h-4.2v-.52Zm9-3.84v4.36h-.78v-4.34Zm5.19 3.12-.55 1.24h-.8l2-4.36h1l2 4.36h-.83l-.66-1.22Zm2-.6c-.54-1.16-.79-1.71-.9-2-.1.29-.41 1-.84 2Zm11.14 1.84v-3.3a3.48 3.48 0 0 1-1 .34v-.53a2.72 2.72 0 0 0 1.17-.64h.54v4.15Zm4.9 0c0-.72.45-1.33 1.52-1.95.8-.46 1-.61 1-1s-.22-.68-.85-.68a.87.87 0 0 0-.93.8h-.71a1.51 1.51 0 0 1 1.67-1.36c1 0 1.56.56 1.56 1.23s-.38.95-1.22 1.42a2.47 2.47 0 0 0-1.18 1h2.59l-.1.56Zm8-1a.84.84 0 0 0 .88.53c.86 0 1-.83 1.06-1.55a1.34 1.34 0 0 1-1.18.51c-1 0-1.55-.57-1.55-1.31a1.48 1.48 0 0 1 1.68-1.43c1.14 0 1.78.69 1.78 2s-.39 2.34-1.8 2.34a1.45 1.45 0 0 1-1.6-1.06Zm0-1.86c0 .49.36.81 1 .81s.94-.3.94-.74a.88.88 0 0 0-1-.91.83.83 0 0 0-1.06.88Zm9.82-.74h-2.15c-.05.33-.14.85-.18 1.08a1.52 1.52 0 0 1 1-.31 1.38 1.38 0 0 1 1.53 1.39c0 .9-.63 1.51-1.75 1.51a1.55 1.55 0 0 1-1.72-1.19h.73a.94.94 0 0 0 1 .63.89.89 0 0 0 1-.92c0-.42-.24-.87-1-.87a1 1 0 0 0-1 .54l-.63-.09c.12-.57.33-1.84.39-2.34h2.82Zm-114-9.65a1.19 1.19 0 0 1-1.13-.73 3 3 0 0 1-.27-1.28v-7.9c0-4.58-2.26-7.21-6.21-7.21a7 7 0 0 0-5.46 2.29 6.61 6.61 0 0 0-1.34 2.28l2.43 1.16s.6-4.64 4.37-4.64c2 0 3 1.28 3 3.7V67l-1.65.39c-4.09.94-8.72 2-8.72 6.08A3.69 3.69 0 0 0 26.84 77a7.26 7.26 0 0 0 3.12.66 10.53 10.53 0 0 0 5.37-2 2.77 2.77 0 0 0 2.73 1.91 5.18 5.18 0 0 0 1.7-.36ZM32 68.75c1.22-.32 2.32-.59 3.14-.79v6.7a8.36 8.36 0 0 1-4.42 1.62 2.81 2.81 0 0 1-2.85-3.14c-.03-1.53.43-3.43 4.13-4.39Zm-16.68-4.68a8.76 8.76 0 0 0 3.9-1.91 5.19 5.19 0 0 0 1.72-4 5.43 5.43 0 0 0-2.48-4.72 9.27 9.27 0 0 0-5.1-1.39H0v.54l3.12.41v23.7L0 77v.54h13a13.36 13.36 0 0 0 6.67-1.45 5.65 5.65 0 0 0 2.93-5.22c-.05-3.49-2.75-6.04-7.28-6.8Zm.42-1.65a6.12 6.12 0 0 1-3.94 1.29h-5v-9.89l.62-.65c2-.05 3.3-.08 3.9-.08h.15c2.16 0 3.76.5 4.75 1.5a5 5 0 0 1 1.28 3.69 5.16 5.16 0 0 1-1.76 4.14Zm2.84 8.2A5.93 5.93 0 0 1 17.1 75a6.24 6.24 0 0 1-4.58 1.56h-.1c-1.26 0-4.59-.08-5-.09l-.63-.65v-11h5.71a6.78 6.78 0 0 1 4 1.3 5.51 5.51 0 0 1 2.08 4.5Zm73.88-10.4v.54l-1.58.34-6.7 15.43.51 1.23h-3.53L74.31 61.1l-2-.34v-.54h8.06v.54l-2.59.33 5.79 14.08 6.05-14.07-3.8-.34v-.54Zm-22.77 1.37a8.68 8.68 0 0 0-11.3 0 8.87 8.87 0 0 0-2.92 7 8.59 8.59 0 1 0 17.14 0 8.87 8.87 0 0 0-2.92-7Zm-.7 7c0 5.35-1.66 8.06-4.95 8.06s-5-2.71-5-8.06 1.67-8.07 5-8.07S69 63.23 69 68.58Zm119.66-7a8.7 8.7 0 0 0-11.31 0 8.9 8.9 0 0 0-2.91 7 8.5 8.5 0 0 0 8.57 9.06 9.31 9.31 0 0 0 5.65-16.06Zm-.7 7c0 5.35-1.67 8.06-4.95 8.06s-4.95-2.71-4.95-8.06 1.66-8.07 4.95-8.07 5 2.71 5 8.06Zm34.8-7a8.68 8.68 0 0 0-11.3 0 8.87 8.87 0 0 0-2.92 7 8.59 8.59 0 1 0 17.14 0 8.87 8.87 0 0 0-2.92-7Zm-.7 7c0 5.35-1.66 8.06-5 8.06s-4.95-2.71-4.95-8.06 1.66-8.07 4.95-8.07 5 2.71 5 8.06ZM117 73.35a6.12 6.12 0 0 1-4.87 2.44c-3.35 0-5.32-2-5.85-6.08l11-2.6.52-.72a8.43 8.43 0 0 0-1.68-4.32 6.62 6.62 0 0 0-5.5-2.48c-3.72 0-8.06 2.28-8.06 8.7a9.69 9.69 0 0 0 2.53 6.87 8 8 0 0 0 5.91 2.49 8.83 8.83 0 0 0 6.86-3.6Zm-10.9-6c0-3.08.76-6.74 4.4-6.74s4.16 4.65 4.19 6.13l-8.54 2c-.03-.42-.05-.89-.05-1.38Zm-4.29 9.34v.54h-8.19v-.53l2.48-.33V61.16l-2.35-.34v-.53l5.49-1.37v17.45Zm-3.45-19.27-2.84-1.93 1.52-3.12 2.84 1.93-1.52 3.13Zm80.67.63-.59.27a8 8 0 0 0-2.93-3.77A7.9 7.9 0 0 0 171 53.1h-2.2l-.64.66v22.95l3.26.33v.54h-10.2V77l3.26-.33V53.76l-.64-.66h-2.2a7.93 7.93 0 0 0-4.51 1.42 8 8 0 0 0-2.92 3.76l-.61-.28 1.7-6.45 2.24.17a118.73 118.73 0 0 0 17.49 0l2.28-.17ZM159.22 73.7a3 3 0 0 1-.75.78 4.32 4.32 0 0 1-2.62.78c-1.87 0-3.12-1.23-4.77-3.33.18-.26.36-.53.53-.81a26.45 26.45 0 0 0 3-7.85l3.68-.62v-.53h-8.06v.53l3.22.41a28.88 28.88 0 0 1-2.84 7c-.14.26-.3.5-.45.74-.06-.07-.11-.15-.17-.23l-.76-1c-3.61-4.7-6.12-7.65-7.78-9.61-2.56-3-3.26-3.85-3.26-5.36s1.8-2.6 3.46-2.6a3.31 3.31 0 0 1 3.42 3.24 4.76 4.76 0 0 1-1.82 4l.46.87a9.66 9.66 0 0 0 2-1.22 4.79 4.79 0 0 0 2.06-3.64c0-3.38-3.8-4.28-5.8-4.28a7.37 7.37 0 0 0-3.86 1.09 4.59 4.59 0 0 0-2.12 4c0 1.91 1.48 3.74 2.66 5.22l.53.65a12.19 12.19 0 0 0-2.94 1.81 8.4 8.4 0 0 0-3.23 6.52c0 5 4.66 7.37 7.81 7.37a11.3 11.3 0 0 0 8-3.17c1.25 1.53 3 3.17 5.68 3.17a6.72 6.72 0 0 0 5.5-3.09Zm-17.16 2.49c-3.76 0-6.18-2.62-6.18-6.68 0-3.61 3.22-5.68 4.33-6.28l.85 1.11c2.33 3 5.83 7.56 6.74 8.75l.27.35.05.07a8.43 8.43 0 0 1-6.06 2.68ZM55.11 61.55 53 64.3v-.07a3.09 3.09 0 0 0-3.14-2.35 3.34 3.34 0 0 0-3 2v12.76l2.51.33v.54h-8.19V77l2.48-.33V62.23l-2.35-.34v-.53L46.86 60v2.36a4.8 4.8 0 0 1 4.25-2.59 5.31 5.31 0 0 1 3 .88 3.46 3.46 0 0 1 .94.88Zm77.62-.27-2.1 2.72v-.07a3.11 3.11 0 0 0-3.14-2.35 3.33 3.33 0 0 0-3 2v12.79l2.51.33v.54h-8.2v-.54l2.48-.33V62l-2.28-.38v-.53l5.5-1.37v2.36a4.8 4.8 0 0 1 4.25-2.59 5.34 5.34 0 0 1 3.05.88 3.58 3.58 0 0 1 .94.89Zm73.38 3.07-.74.16a5.82 5.82 0 0 0-5.88-3.92c-1.59 0-3.26.78-3.26 2.4 0 4.41 10.15 2.93 10.15 9.15a5.49 5.49 0 0 1-5.66 5.52c-2.37 0-3.46-.93-4.8-.93a.75.75 0 0 0-.69.42l-1 .17-1-5 .74-.17s2 4.43 6.75 4.43c1.7 0 3.7-1 3.7-3.09 0-4.44-10.27-3.16-10.27-9.26A4.61 4.61 0 0 1 199 59.6c1.77 0 2.84.58 4.07.58.64 0 1.2-.29 1.2-.7l1-.18Z"/><path d="M120.18 33.35c1.89 0 3.94-.48 3.94-1.53a.79.79 0 0 0-.2-.52l-.07-.08a5.54 5.54 0 0 1-1.09-3.05c-.24-1.5-.51-3.21-2.53-3.21s-2.3 1.71-2.54 3.21a5.59 5.59 0 0 1-1.09 3l-.07.08a.79.79 0 0 0-.2.52c-.1 1.1 1.95 1.58 3.85 1.58Zm-1.75-5.12c.27-1.67.47-2.54 1.75-2.54s1.47.87 1.73 2.54a9.91 9.91 0 0 0 .57 2.33 10.35 10.35 0 0 0-4.61 0 9.52 9.52 0 0 0 .56-2.33Zm-1.37 3.56.07-.08a4.4 4.4 0 0 1 2.13-.59v.09a.92.92 0 0 0 1.83 0v-.09a4.39 4.39 0 0 1 2.12.59.38.38 0 0 1 .09.09c0 .16-1 .75-3.13.75S117 32 117 31.82c0 0 0-.01.06-.03ZM105 33.05l2.43-1.52 2.43 1.52.25-.18-.73-2.72 2.24-1.78-.1-.29-2.89-.16-1-2.61h-.31l-1.05 2.61-2.89.16c0 .14 0 .15-.09.29l2.23 1.78-.73 2.72Zm0-4.27 1.76-.1.64-1.59.64 1.59 1.76.1-1.36 1.08.44 1.66-1.48-.93-1.48.93.45-1.66Zm7.49-27L112 .35h.64l.53.6h.2l.19-.95h.6l.2 1h.2l.53-.6h.64l-.54 1.4-1.33.39Zm17.68 6.3h.12v-.81h-.41a7.29 7.29 0 0 1-2.44-.51c-.19-.07-.38-.16-.57-.25a7.29 7.29 0 0 1-3.27-3.18c-.09-.18-.18-.37-.25-.55a6.52 6.52 0 0 1-.51-2.38 2.81 2.81 0 0 1 0-.29V0H122v.11a7.83 7.83 0 0 0 .44 2.59h-17.89A7.83 7.83 0 0 0 105 .11V0h-.81v.4a6.91 6.91 0 0 1-.52 2.37c-.08.19-.17.37-.26.55a7.34 7.34 0 0 1-3.27 3.18c-.19.09-.38.18-.57.25a7.54 7.54 0 0 1-2.44.51h-.4v.78h.11a8.18 8.18 0 0 0 2.65-.43V19c-.62 1.3-1.3 2.59-2 3.83l-.35.59h2.38v7.75A2.57 2.57 0 0 1 98 33.49c.13.23.28.45.43.67a3.42 3.42 0 0 0 1.83-2.31A10 10 0 0 0 105 36.3l-.29.08a3.39 3.39 0 0 0-1.88 1.48l.71.38a2.68 2.68 0 0 1 1.46-1.12 2.76 2.76 0 0 1 .86-.13 2.55 2.55 0 0 1 1 .2c.61.26 2.78 1.33 2.78 1.33a6.85 6.85 0 0 1 3 2.6l.87.52h.09l.87-.52a6.71 6.71 0 0 1 2.94-2.57l2.84-1.37a2.66 2.66 0 0 1 1-.2 2.93 2.93 0 0 1 .87.14 2.6 2.6 0 0 1 1.42 1.12c.24-.12.47-.26.71-.39a3.38 3.38 0 0 0-1.88-1.47 2.63 2.63 0 0 0-.3-.09 9.92 9.92 0 0 0 4.77-4.44 3.45 3.45 0 0 0 1.82 2.31 3.62 3.62 0 0 0 1.57.36h.12v-.78h-.12a2.67 2.67 0 0 1-1.13-.25 2.59 2.59 0 0 1-1.53-2.33v-7.75h2.39l-.35-.59c-.72-1.25-1.41-2.54-2-3.83V7.62a8.28 8.28 0 0 0 2.57.43Zm-29.88-.78a8.07 8.07 0 0 0 3.93-3.82h18.57a8.09 8.09 0 0 0 3.92 3.82v9.94c-.51-1.17-1-2.36-1.41-3.55l-1.48-4.15a2.68 2.68 0 0 0-2.2-1.74 2.1 2.1 0 0 0-.36 0A2.72 2.72 0 0 0 119 8.91l-2.4 3.39c-.07-.46-.11-.93-.15-1.4s-.07-.88-.14-1.32a2.5 2.5 0 0 0 1.21-2c0-1.57-1.82-2.84-4-2.84s-4.07 1.26-4.07 2.81a2.54 2.54 0 0 0 1.2 2c-.06.43-.1.88-.14 1.32 0 .45-.08.93-.15 1.37L108 8.91a2.74 2.74 0 0 0-2.22-1.14 2.31 2.31 0 0 0-.37 0 2.68 2.68 0 0 0-2.19 1.74l-1.48 4.15c-.42 1.18-.9 2.37-1.41 3.55V7.3Zm13.46 7.31h-.49a7 7 0 0 0-.75 2.49c0 .25.08.59.08 1.21 0 .83-1.1 1.2-2.26 1.6a6.41 6.41 0 0 0-2.94 1.92c.08-.95.21-2.55.37-4.47a2.09 2.09 0 0 1 1.49-1.85 12.62 12.62 0 0 1 1.27-.43s2.31-.72 2.31-1.65c0-.65-.79-1.24-.79-1.24l-.28.31c.22.22.4.41.4.65 0 .68-1.55 1.09-1.55 1.09a8.48 8.48 0 0 0 .71-3.27c.2-2.41.49-3.54 2.19-3.54s2 1.14 2.18 3.55a8.62 8.62 0 0 0 .71 3.26s-1.55-.4-1.55-1.09c0-.24.18-.42.41-.65l-.29-.31s-.78.6-.78 1.25c0 .92 2.3 1.65 2.3 1.65a11.79 11.79 0 0 1 1.27.42 2.08 2.08 0 0 1 1.49 1.86c.16 1.92.29 3.51.37 4.47a6.38 6.38 0 0 0-2.94-1.93c-1.16-.4-2.26-.77-2.26-1.59 0-.63.08-1 .08-1.22a7 7 0 0 0-.75-2.49Zm-2.91-5.89a1.59 1.59 0 0 1-.58-1.17c0-1.14 1.45-2.06 3.25-2.06s3.24.92 3.24 2.06a1.57 1.57 0 0 1-.58 1.16 2.75 2.75 0 0 0-5.33 0Zm-12.35 13.9c.42-.75.83-1.51 1.22-2.27.2-.39.39-.78.58-1.17a54.56 54.56 0 0 0 2.18-5.24L104 9.8a1.84 1.84 0 0 1 1.54-1.22 1.23 1.23 0 0 1 .27 0 1.86 1.86 0 0 1 1.54.8l2.82 4a2.27 2.27 0 0 1-1.21 1.45h-.09a2.83 2.83 0 0 0-1.87 2.48c-.2 2.4-.36 4.44-.44 5.31h-2.45l3.28-8.62-.76-.28-3.43 8.92h-1.57l3.85-9.64c.17-.42.41-.8.79-.8a1 1 0 0 1 .52.18l.23-.23s-.31-.68-.92-.68-1 .31-1.38 1.24-4 9.94-4 9.94ZM113.1 40.4a8 8 0 0 0-3.1-2.54h-.09l-2.42-1.17-.35-.15c-3.74-1.74-6.85-3.55-6.85-8.23V23.4h12.81v17Zm-5.2-17.78c.14-.73 1.64-1.61 2.7-2 1.31-.45 2.79-1 2.79-2.34a10.14 10.14 0 0 0-.07-1.3 1.91 1.91 0 0 1 .19-1.23 2 2 0 0 1 .19 1.25 8.12 8.12 0 0 0-.08 1.3c0 1.38 1.48 1.89 2.79 2.34 1.06.36 2.56 1.24 2.7 2Zm18.81 5.62c0 5.08-3.72 6.79-7.32 8.44-2.24 1-4.36 2-5.48 3.73v-17h12.8v4.83Zm1.81-5.62h-2.27s-3.58-9-4-9.93-.88-1.25-1.38-1.25-.92.68-.92.68l.24.24a.91.91 0 0 1 .52-.19c.37 0 .61.38.78.81s3.85 9.64 3.85 9.64h-1.57l-3.43-8.92-.76.28 3.42 8.64h-2.5c-.07-.85-.24-2.87-.44-5.31a2.84 2.84 0 0 0-1.85-2.46h-.11a2.24 2.24 0 0 1-1.21-1.45l2.82-4a1.87 1.87 0 0 1 1.55-.8h.26a1.86 1.86 0 0 1 1.54 1.23l1.48 4.17a52 52 0 0 0 2.19 5.23l.57 1.18c.39.7.8 1.46 1.22 2.21Z" style="fill:#f45245"/></svg>